<svg width="164" height="32" viewBox="0 0 164 32" fill="none" xmlns="http://www.w3.org/2000/svg">
<path d="M40.8396 25.3495L39.2365 26.0415L42.1016 16.3594H45.1763L40.2549 31.8546H37.2484L39.0513 26.2169L40.4449 27.3376H37.1022L33.7693 16.3545H36.8683L39.2413 25.3495H40.8445H40.8396Z" fill="#111111"/>
<path d="M52.6316 27.8245L52.7388 25.0178L52.656 24.7596V21.1684L52.6462 20.6519C52.6462 19.9015 52.4416 19.3557 52.0274 19.0049C51.6229 18.6541 50.9554 18.4786 50.0296 18.4786C49.2402 18.4786 48.4995 18.5858 47.8076 18.7954C47.1206 19 46.4871 19.2339 45.9024 19.5068L46.1606 17.1192C46.5017 16.9389 46.8915 16.7732 47.3301 16.6173C47.7735 16.4516 48.2705 16.32 48.8163 16.2177C49.362 16.1154 49.9516 16.0667 50.5802 16.0667C51.5157 16.0667 52.3051 16.1787 52.9532 16.4077C53.6013 16.627 54.1129 16.9437 54.4978 17.353C54.8877 17.7672 55.1703 18.2594 55.3408 18.8392C55.5114 19.4093 55.5991 20.0379 55.5991 20.7347V27.8196H52.6413L52.6316 27.8245ZM48.8796 28.0925C47.7394 28.0925 46.872 27.8099 46.2727 27.2398C45.6782 26.6697 45.3859 25.8608 45.3859 24.8083V24.4818C45.3859 23.366 45.727 22.5425 46.414 22.0162C47.1011 21.4802 48.1877 21.1099 49.6787 20.9053L52.9288 20.4618L53.1042 22.3914L50.1124 22.8251C49.4595 22.9128 48.9917 23.0687 48.7091 23.2929C48.4362 23.517 48.2997 23.8484 48.2997 24.2869V24.4039C48.2997 24.8327 48.4313 25.1689 48.6993 25.4076C48.9722 25.6415 49.3961 25.7585 49.976 25.7585C50.4925 25.7585 50.931 25.6756 51.2965 25.5148C51.6619 25.3492 51.964 25.1348 52.1979 24.8716C52.4416 24.5988 52.6121 24.2967 52.7144 23.9604L53.1335 25.4466H52.617C52.4903 25.9388 52.2905 26.3871 52.0079 26.7915C51.735 27.1911 51.3501 27.5078 50.8482 27.7514C50.3512 27.9853 49.6933 28.1023 48.8845 28.1023L48.8796 28.0925Z" fill="#111111"/>
<path d="M63.3223 25.3495L61.7191 26.0415L64.5843 16.3594H67.659L62.7375 31.8546H59.7311L61.534 26.2169L62.9276 27.3376H59.5849L56.252 16.3545H59.351L61.724 25.3495H63.3271H63.3223Z" fill="#111111"/>
<path d="M80.4743 27.8246V20.9345C80.4743 20.4521 80.406 20.0331 80.2745 19.6823C80.1478 19.3314 79.9383 19.0585 79.641 18.8636C79.3438 18.6687 78.9393 18.5713 78.4228 18.5713C77.9697 18.5713 77.575 18.6541 77.229 18.8149C76.8928 18.9806 76.6151 19.1999 76.4007 19.4825C76.1911 19.7553 76.0303 20.0672 75.9231 20.418L75.4554 18.7808H76.0157C76.1424 18.274 76.3471 17.816 76.6346 17.4116C76.9318 17.0071 77.3265 16.6855 77.8284 16.4516C78.3351 16.208 78.9686 16.0911 79.7239 16.0911C80.6058 16.0911 81.3172 16.2567 81.863 16.593C82.4087 16.9194 82.8083 17.4116 83.0665 18.0645C83.3297 18.7175 83.4661 19.5312 83.4661 20.496V27.8148H80.4743V27.8246ZM72.9995 27.8246V16.3542H75.9914L75.8744 19.1511L75.9914 19.3948V27.8246H72.9995Z" fill="#111111"/>
<path d="M91.0139 28.1073C89.0502 28.1073 87.5884 27.6542 86.6285 26.7527C85.6686 25.8464 85.191 24.5405 85.191 22.8253V21.3294C85.191 19.6288 85.6393 18.3229 86.5359 17.4117C87.4325 16.5005 88.7335 16.0425 90.4438 16.0425C91.5987 16.0425 92.5586 16.2471 93.3334 16.6516C94.1081 17.056 94.6831 17.6359 95.0632 18.3814C95.453 19.122 95.6479 20.0089 95.6479 21.0468V21.4561C95.6479 21.7387 95.6333 22.0262 95.5992 22.3234C95.5748 22.6109 95.5407 22.8838 95.492 23.142H92.7779C92.8022 22.7132 92.812 22.3088 92.812 21.9238C92.8217 21.534 92.8217 21.1832 92.8217 20.8713C92.8217 20.3353 92.734 19.8773 92.5635 19.5021C92.3929 19.122 92.1298 18.8297 91.779 18.6348C91.4281 18.4399 90.9798 18.3424 90.4341 18.3424C89.6301 18.3424 89.0405 18.5665 88.6555 19.01C88.2755 19.4534 88.0806 20.0868 88.0806 20.9055V21.9677L88.0903 22.3088V23.2102C88.0903 23.5708 88.1439 23.9022 88.256 24.2043C88.3729 24.5064 88.563 24.7744 88.831 24.9985C89.0941 25.2178 89.4449 25.3884 89.8835 25.515C90.3269 25.6417 90.8824 25.7002 91.5451 25.7002C92.2614 25.7002 92.9435 25.6222 93.5916 25.4663C94.2445 25.3006 94.8683 25.0862 95.453 24.8134L95.1947 27.1766C94.6733 27.4641 94.0545 27.6931 93.348 27.8539C92.6463 28.0245 91.8667 28.1122 91.0091 28.1122L91.0139 28.1073ZM86.7795 23.1372V21.1491H94.8829V23.1372H86.7795Z" fill="#111111"/>
<path d="M101.914 28.0732C100.94 28.0732 100.16 27.927 99.5753 27.6395C99.0003 27.3423 98.5813 26.8989 98.323 26.3044C98.0648 25.7099 97.9381 24.9839 97.9381 24.1166V17.4263H100.91V23.6731C100.91 24.2969 101.052 24.7549 101.33 25.0521C101.617 25.3396 102.119 25.4858 102.84 25.4858C103.259 25.4858 103.668 25.4419 104.058 25.3591C104.448 25.2665 104.809 25.1447 105.135 24.9985L104.877 27.5031C104.487 27.6834 104.039 27.8247 103.532 27.9222C103.035 28.0245 102.494 28.0732 101.919 28.0732H101.914ZM96.2765 18.8102V16.4469H105.023L104.765 18.8102H96.2765ZM97.9722 16.6711L97.9625 13.6305L100.945 13.3284L100.828 16.6711H97.9722Z" fill="#111111"/>
<path d="M108.005 27.8249L105.525 16.3545H108.59L110.276 25.7004H110.485L112.191 16.6469H116.05L117.77 25.7004H117.97L119.675 16.3545H122.706L120.226 27.8249H115.875L114.471 20.2332L114.213 18.8201H114.038L113.779 20.2332L112.366 27.8249H108.005Z" fill="#111111"/>
<path d="M128.816 28.1414C127.038 28.1414 125.688 27.6834 124.772 26.7722C123.861 25.861 123.403 24.56 123.403 22.8789V21.3245C123.403 19.6337 123.861 18.3326 124.772 17.4166C125.693 16.4956 127.043 16.0376 128.816 16.0376C130.59 16.0376 131.925 16.4956 132.841 17.4166C133.752 18.3278 134.211 19.6288 134.211 21.3245V22.8789C134.211 24.5648 133.752 25.861 132.841 26.7722C131.935 27.6834 130.595 28.1414 128.816 28.1414ZM128.816 25.744C129.596 25.744 130.191 25.5102 130.595 25.0424C131.009 24.5746 131.214 23.9022 131.214 23.0299V21.1686C131.214 20.2817 131.009 19.5996 130.595 19.1318C130.191 18.6542 129.596 18.4204 128.816 18.4204C128.037 18.4204 127.428 18.6591 127.014 19.1318C126.609 19.5996 126.404 20.2769 126.404 21.1686V23.0299C126.404 23.9022 126.609 24.5746 127.014 25.0424C127.428 25.5102 128.027 25.744 128.816 25.744Z" fill="#111111"/>
<path d="M138.957 21.1591L138.196 19.1613H138.923C139.132 18.2355 139.517 17.5046 140.068 16.9735C140.623 16.4423 141.388 16.1792 142.372 16.1792C142.577 16.1792 142.757 16.1938 142.923 16.2279C143.089 16.2523 143.235 16.2815 143.366 16.3205L143.532 19.3124C143.362 19.2588 143.162 19.2198 142.938 19.1954C142.713 19.1662 142.475 19.1467 142.226 19.1467C141.432 19.1467 140.755 19.3221 140.189 19.6729C139.634 20.0238 139.225 20.5208 138.961 21.1591H138.957ZM136.043 27.825V16.3546H138.898L138.771 19.8727L139.039 19.9799V27.825H136.048H136.043Z" fill="#111111"/>
<path d="M152.132 27.8247L148.366 22.7717H147.347V20.8177H148.376L152.001 16.3494H155.46L150.807 21.9969V21.3878L155.636 27.8198H152.128L152.132 27.8247ZM144.765 27.8247V12.3684H147.747V27.8295H144.765V27.8247Z" fill="#111111"/>
<path d="M159.893 6.7474V4.12666H161.221C161.328 4.12666 161.444 4.15744 161.569 4.21899C161.695 4.27818 161.801 4.37051 161.889 4.49598C161.979 4.61909 162.024 4.77534 162.024 4.96473C162.024 5.15649 161.978 5.31985 161.885 5.45479C161.793 5.58737 161.68 5.68798 161.548 5.75664C161.418 5.82529 161.295 5.85962 161.179 5.85962H160.22V5.43348H161.001C161.079 5.43348 161.163 5.39442 161.253 5.3163C161.345 5.23817 161.392 5.12098 161.392 4.96473C161.392 4.80375 161.345 4.69485 161.253 4.63803C161.163 4.58121 161.084 4.5528 161.015 4.5528H160.468V6.7474H159.893ZM161.477 5.51161L162.13 6.7474H161.498L160.859 5.51161H161.477ZM160.887 8.3099C160.494 8.3099 160.126 8.23651 159.783 8.08973C159.44 7.94295 159.138 7.73935 158.877 7.47894C158.617 7.21852 158.413 6.91667 158.267 6.5734C158.12 6.23012 158.046 5.86199 158.046 5.46899C158.046 5.076 158.12 4.70787 158.267 4.36459C158.413 4.02131 158.617 3.71947 158.877 3.45905C159.138 3.19863 159.44 2.99504 159.783 2.84826C160.126 2.70147 160.494 2.62808 160.887 2.62808C161.28 2.62808 161.648 2.70147 161.992 2.84826C162.335 2.99504 162.637 3.19863 162.897 3.45905C163.158 3.71947 163.361 4.02131 163.508 4.36459C163.655 4.70787 163.728 5.076 163.728 5.46899C163.728 5.86199 163.655 6.23012 163.508 6.5734C163.361 6.91667 163.158 7.21852 162.897 7.47894C162.637 7.73935 162.335 7.94295 161.992 8.08973C161.648 8.23651 161.28 8.3099 160.887 8.3099ZM160.887 7.62808C161.285 7.62808 161.647 7.53102 161.974 7.33689C162.301 7.14276 162.561 6.88235 162.755 6.55564C162.949 6.22894 163.046 5.86672 163.046 5.46899C163.046 5.07127 162.949 4.70905 162.755 4.38235C162.561 4.05564 162.301 3.79522 161.974 3.6011C161.647 3.40697 161.285 3.3099 160.887 3.3099C160.49 3.3099 160.127 3.40697 159.801 3.6011C159.474 3.79522 159.214 4.05564 159.019 4.38235C158.825 4.70905 158.728 5.07127 158.728 5.46899C158.728 5.86672 158.825 6.22894 159.019 6.55564C159.214 6.88235 159.474 7.14276 159.801 7.33689C160.127 7.53102 160.49 7.62808 160.887 7.62808Z" fill="black"/>
<path fillRule="evenodd" clipRule="evenodd" d="M33.9116 1.50757L25.3837 16.8397H17.085L25.7944 1.50757H33.9116ZM17.0198 16.9545L21.1698 24.4157L16.9557 31.9921H8.47778L17.0198 16.9545ZM0 1.50773L8.52851 16.8409H16.8271L8.11718 1.50773H0Z" fill="black"/>
</svg>
